<?xml version="1.0" encoding="utf-8"?>
<svg xmlns="http://www.w3.org/2000/svg" width="135" height="40" viewBox="0 0 135 40">
    <rect width="135" height="40" rx="5" fill="#000"/>
    <text x="45" y="15" fill="#fff" font-family="Arial" font-size="12">Download on the</text>
    <text x="45" y="30" fill="#fff" font-family="Arial" font-size="20" font-weight="bold">App Store</text>
    <path d="M25,10 C27,10 29,11 30.5,13 C29,14.5 28,16.5 28,18.5 C28,20.5 29,22.5 30.5,24 C29,26 27,27 25,27 C23,27 22,26 20.5,26 C19,26 18,27 16,27 C14,27 12,26 10.5,24 C9,22 8,19 8,16 C8,13 9,10 10.5,8 C12,6 14,5 16,5 C18,5 19,6 20.5,6 C22,6 23,5 25,5 C26,5 27,5.5 28,6.5" fill="none" stroke="#fff" stroke-width="2"/>
</svg> 